<!-- LLM Gateway logo — Concept 1: Aperture Gate (saved per user request 2026-06-14).
     카메라 조리개 6날이 중앙 통로로 수렴 — "多모델 → 1관문". 회전대칭·그라데이션. -->
<svg xmlns="http://www.w3.org/2000/svg" width="48" height="48" viewBox="0 0 48 48">
  <defs>
    <linearGradient id="ap" x1="0" y1="0" x2="1" y2="1">
      <stop offset="0" stop-color="#5eead4"/>
      <stop offset="1" stop-color="#0d9488"/>
    </linearGradient>
  </defs>
  <g fill="url(#ap)">
    <path d="M24 24 L24 9 A15 15 0 0 1 37 16.5 Z"/>
    <path d="M24 24 L37 16.5 A15 15 0 0 1 37 31.5 Z" opacity="0.72"/>
    <path d="M24 24 L37 31.5 A15 15 0 0 1 24 39 Z" opacity="0.55"/>
    <path d="M24 24 L24 39 A15 15 0 0 1 11 31.5 Z" opacity="0.72"/>
    <path d="M24 24 L11 31.5 A15 15 0 0 1 11 16.5 Z" opacity="0.55"/>
    <path d="M24 24 L11 16.5 A15 15 0 0 1 24 9 Z" opacity="0.82"/>
  </g>
  <circle cx="24" cy="24" r="16" fill="none" stroke="url(#ap)" stroke-width="3.4"/>
  <circle cx="24" cy="24" r="5" fill="#1b2430"/>
</svg>
